<svg version="1.2" xmlns="http://www.w3.org/2000/svg" viewBox="0 0 377 132" width="377" height="132">
	<style>
		.s0 { fill: #ff0000 } 
	</style>
	<path id="DATA" fill-rule="evenodd" class="s0" d="m81.12 104h-44.86q-1.42 0-2.44-0.96-0.96-1.02-0.96-2.38v-70.69q0-1.3 0.96-2.32 1.02-1.02 2.44-1.02h44.86q1.3 0 2.32 1.08 1.07 1.01 1.07 2.26v6.29q0 1.3 0.97 2.26 1.02 0.97 2.26 0.97h6.29q1.3 0 2.32 1.07 1.02 1.02 1.02 2.32v44.86q0 1.36-1.08 2.38-1.01 1.02-2.26 1.02h-6.29q-1.3 0-2.26 0.97-0.97 0.96-0.97 2.37v6.18q0 1.36-1.02 2.38-1.02 0.96-2.37 0.96zm-32.01-12.86h32.01q1.35 0 2.37-1.02 1.02-1.02 1.02-2.38v-44.86q0-1.3-1.07-2.32-1.02-1.07-2.32-1.07h-32.01q-1.3 0-2.32 1.07-1.02 1.02-1.02 2.32v44.86q0 1.36 1.02 2.38 1.08 1.02 2.32 1.02zm83.26 12.86h-6.11q-1.42 0-2.44-0.96-0.96-1.02-0.96-2.38v-57.78q0-1.35 1.02-2.37 1.02-1.02 2.38-1.02h6.11q1.36 0 2.38-0.97 1.02-1.02 1.02-2.26v-6.29q0-1.3 1.02-2.32 1.08-1.02 2.32-1.02h32.01q1.3 0 2.32 1.08 1.07 1.01 1.07 2.26v6.29q0 1.3 0.97 2.26 1.02 0.97 2.26 0.97h6.29q1.3 0 2.32 1.07 1.02 1.02 1.02 2.32v57.78q0 1.36-1.08 2.38-1.01 0.96-2.26 0.96h-6.29q-1.3 0-2.26-0.96-0.97-1.02-0.97-2.38v-19.03q0-1.36-1.02-2.38-1.02-1.02-2.37-1.02h-32.01q-1.36 0-2.38 1.02-0.96 0.96-0.96 2.38v19.03q0 1.41-1.02 2.38-0.96 0.96-2.38 0.96zm6.74-38.63h32.01q1.3 0 2.32-1.02 1.07-1.07 1.07-2.32v-19.15q0-1.3-1.07-2.32-1.02-1.07-2.32-1.07h-32.01q-1.3 0-2.32 1.07-1.02 1.02-1.02 2.32v19.15q0 1.3 1.02 2.32 1.08 1.02 2.32 1.02zm96.18 38.63h-6.18q-1.3 0-2.32-0.96-1.02-1.02-1.02-2.38v-57.78q0-1.35-1.02-2.37-1.02-1.02-2.38-1.02h-19.03q-1.36 0-2.38-0.97-0.96-1.02-0.96-2.26v-6.29q0-1.3 0.96-2.32 1.02-1.02 2.38-1.02h57.78q1.3 0 2.32 1.08 1.07 1.01 1.07 2.26v6.29q0 1.3-1.02 2.26-1.02 0.97-2.37 0.97h-19.15q-1.3 0-2.32 1.07-1.02 1.02-1.02 2.32v57.78q0 1.41-1.02 2.38-0.96 0.96-2.32 0.96zm52.08 0h-6.11q-1.42 0-2.44-0.96-0.96-1.02-0.96-2.38v-57.78q0-1.35 1.02-2.37 1.02-1.02 2.38-1.02h6.11q1.36 0 2.38-0.97 1.02-1.02 1.02-2.26v-6.29q0-1.3 1.02-2.32 1.08-1.02 2.32-1.02h32.01q1.3 0 2.32 1.08 1.07 1.01 1.07 2.26v6.29q0 1.3 0.97 2.26 1.02 0.97 2.26 0.97h6.29q1.3 0 2.32 1.07 1.02 1.02 1.02 2.32v57.78q0 1.36-1.08 2.38-1.01 0.96-2.26 0.96h-6.29q-1.3 0-2.26-0.96-0.97-1.02-0.97-2.38v-19.03q0-1.36-1.02-2.38-1.02-1.02-2.37-1.02h-32.01q-1.36 0-2.38 1.02-0.96 0.96-0.96 2.38v19.03q0 1.41-1.02 2.38-0.96 0.96-2.38 0.96zm6.74-38.63h32.01q1.3 0 2.32-1.02 1.07-1.07 1.07-2.32v-19.15q0-1.3-1.07-2.32-1.02-1.07-2.32-1.07h-32.01q-1.3 0-2.32 1.07-1.02 1.02-1.02 2.32v19.15q0 1.3 1.02 2.32 1.08 1.02 2.32 1.02z"/>
</svg>